<svg width="218" height="224" viewBox="0 0 218 224" fill="none" xmlns="http://www.w3.org/2000/svg">
<path d="M112.482 101.693C142.882 63.2925 194.482 56.6926 216.482 58.1926C222.882 103.392 198.982 146.193 184.482 161.193C151.982 194.813 111.315 195.526 99.982 193.193C76.482 182.693 74.482 149.693 112.482 101.693Z" fill="#99A747"/>
<path d="M105.066 101.693C74.6663 63.2925 23.0663 56.6926 1.06631 58.1926C-5.33376 103.392 18.5664 146.193 33.0664 161.193C65.5664 194.813 106.233 195.526 117.566 193.193C141.066 182.693 143.066 149.693 105.066 101.693Z" fill="#9BAA4A"/>
<path d="M110.084 0C127.555 16.3333 161.997 59.8 160.001 103C157.505 157 123.562 187.5 110.084 194C96.5836 187.5 62.5838 157 60.0838 103C58.0838 59.8 92.5838 16.3333 110.084 0Z" fill="#9AAB4A"/>
<path d="M110.836 115C98.8364 90.6 75.1697 75.5 64.8364 71C51.2364 139.8 89.8364 179.333 110.836 190.5V170.5L97.3364 152C96.5364 141.2 106.003 122.833 110.836 115Z" fill="#85963C" stroke="#84953C"/>
<path d="M111 115C123 90.6 144.667 75 155 70.5C168.6 139.3 132 179.333 111 190.5V171L124.5 152C125.3 141.2 115.833 122.833 111 115Z" fill="#86993C" stroke="#82963B"/>
<path d="M97.4612 153C94.6612 143 105.294 123.5 110.961 115C122.961 132.6 126.628 147.667 126.961 153C126.961 153 114.794 173 110.961 177C107.628 173.167 100.261 163 97.4612 153Z" fill="#7C8E38" stroke="#7C8E38"/>
<circle cx="112" cy="164" r="18" fill="#FAD983"/>
<path d="M40.5 207.847C95.1589 195.915 125.555 196.188 179.5 207.847V223.847C127.32 212.151 96.9875 211.538 40.5 223.847V207.847Z" fill="#F8D983"/>
<path d="M34 215.848C34 211.848 38.3333 208.848 40.5 207.848V223.848C37.5 223.348 34 220.848 34 215.848Z" fill="#FAD675"/>
<path d="M185.5 216C185.5 212 181.667 209 179.5 208V224C182.5 223.5 185.5 221 185.5 216Z" fill="#FAD675"/>
</svg>
